<svg width="397" height="1024" viewBox="0 0 397 1024" fill="none" xmlns="http://www.w3.org/2000/svg">
<g clip-path="url(#clip0_704_239)">
<rect width="397" height="1024" fill="url(#paint0_linear_704_239)"/>
<path d="M31.992 367.128L31.992 342.744C31.992 338.392 32.696 334.456 34.104 330.936C35.512 327.352 37.624 324.312 40.44 321.816C43.192 319.256 46.68 317.304 50.904 315.96C55.064 314.552 59.928 313.848 65.496 313.848C71.064 313.848 75.96 314.552 80.184 315.96C84.344 317.304 87.832 319.256 90.648 321.816C93.4 324.312 95.48 327.352 96.888 330.936C98.296 334.456 99 338.392 99 342.744L99 367.128L31.992 367.128ZM87.768 342.744C87.768 338.008 86.392 334.264 83.64 331.512C80.824 328.696 76.536 327.288 70.776 327.288L60.216 327.288C54.456 327.288 50.2 328.696 47.448 331.512C44.632 334.264 43.224 338.008 43.224 342.744L43.224 354.456L87.768 354.456L87.768 342.744ZM100.152 281.452C100.152 285.164 99.544 288.492 98.328 291.436C97.048 294.316 95.288 296.78 93.048 298.828C90.744 300.812 87.992 302.348 84.792 303.436C81.528 304.524 77.88 305.068 73.848 305.068C69.88 305.068 66.296 304.556 63.096 303.532C59.896 302.444 57.176 300.908 54.936 298.924C52.632 296.94 50.872 294.508 49.656 291.628C48.376 288.748 47.736 285.484 47.736 281.836C47.736 277.932 48.408 274.54 49.752 271.66C51.096 268.78 52.92 266.412 55.224 264.556C57.528 262.7 60.216 261.324 63.288 260.428C66.296 259.468 69.528 258.988 72.984 258.988L77.016 258.988L77.016 292.3L78.264 292.3C81.912 292.3 84.856 291.276 87.096 289.228C89.272 287.18 90.36 284.14 90.36 280.108C90.36 277.036 89.72 274.54 88.44 272.62C87.16 270.636 85.528 268.876 83.544 267.34L90.936 260.716C93.816 262.764 96.088 265.58 97.752 269.164C99.352 272.684 100.152 276.78 100.152 281.452ZM56.952 281.644C56.952 284.908 58.04 287.5 60.216 289.42C62.392 291.34 65.208 292.3 68.664 292.3L69.432 292.3L69.432 271.756L68.568 271.756C65.112 271.756 62.328 272.62 60.216 274.348C58.04 276.012 56.952 278.444 56.952 281.644ZM27.96 248.177L27.96 235.889L57.144 235.889L57.144 235.505C54.264 234.609 51.992 232.913 50.328 230.417C48.6 227.921 47.736 225.009 47.736 221.681C47.736 215.281 50.008 210.417 54.552 207.089C59.032 203.697 65.464 202.001 73.848 202.001C82.296 202.001 88.792 203.697 93.336 207.089C97.88 210.417 100.152 215.281 100.152 221.681C100.152 225.009 99.288 227.921 97.56 230.417C95.832 232.849 93.528 234.545 90.648 235.505L90.648 235.889L99 235.889L99 248.177L27.96 248.177ZM89.976 225.617C89.976 222.417 88.92 219.825 86.808 217.841C84.696 215.857 81.848 214.865 78.264 214.865L69.624 214.865C66.04 214.865 63.192 215.857 61.08 217.841C58.904 219.825 57.816 222.417 57.816 225.617C57.816 228.561 58.552 231.025 60.024 233.009C61.496 234.929 63.448 235.889 65.88 235.889L81.816 235.889C84.44 235.889 86.456 234.929 87.864 233.009C89.272 231.025 89.976 228.561 89.976 225.617ZM27.96 190.615L27.96 178.327L57.144 178.327L57.144 177.943C54.264 177.047 51.992 175.351 50.328 172.855C48.6 170.359 47.736 167.447 47.736 164.119C47.736 157.719 50.008 152.855 54.552 149.527C59.032 146.135 65.464 144.439 73.848 144.439C82.296 144.439 88.792 146.135 93.336 149.527C97.88 152.855 100.152 157.719 100.152 164.119C100.152 167.447 99.288 170.359 97.56 172.855C95.832 175.287 93.528 176.983 90.648 177.943L90.648 178.327L99 178.327L99 190.615L27.96 190.615ZM89.976 168.055C89.976 164.855 88.92 162.263 86.808 160.279C84.696 158.295 81.848 157.303 78.264 157.303L69.624 157.303C66.04 157.303 63.192 158.295 61.08 160.279C58.904 162.263 57.816 164.855 57.816 168.055C57.816 170.999 58.552 173.463 60.024 175.447C61.496 177.367 63.448 178.327 65.88 178.327L81.816 178.327C84.44 178.327 86.456 177.367 87.864 175.447C89.272 173.463 89.976 170.999 89.976 168.055ZM41.592 126.908C41.592 129.468 41.016 131.324 39.864 132.476C38.712 133.564 37.24 134.108 35.448 134.108L33.528 134.108C31.736 134.108 30.264 133.564 29.112 132.476C27.96 131.324 27.384 129.468 27.384 126.908C27.384 124.412 27.96 122.588 29.112 121.436C30.264 120.284 31.736 119.708 33.528 119.708L35.448 119.708C37.24 119.708 38.712 120.284 39.864 121.436C41.016 122.588 41.592 124.412 41.592 126.908ZM48.888 133.052L48.888 120.764L99 120.764L99 133.052L48.888 133.052Z" fill="white"/>
<path d="M99 52.473L99 67.257L73.272 82.617L73.272 82.905L99 98.073L99 111.897L64.632 90.201L31.992 110.937L31.992 96.153L55.8 81.945L55.8 81.657L31.992 67.257L31.992 53.433L64.632 74.361L99 52.473Z" fill="#9DA9C6"/>
<path d="M309.992 966.128L309.992 941.744C309.992 937.392 310.696 933.456 312.104 929.936C313.512 926.352 315.624 923.312 318.44 920.816C321.192 918.256 324.68 916.304 328.904 914.96C333.064 913.552 337.928 912.848 343.496 912.848C349.064 912.848 353.96 913.552 358.184 914.96C362.344 916.304 365.832 918.256 368.648 920.816C371.4 923.312 373.48 926.352 374.888 929.936C376.296 933.456 377 937.392 377 941.744L377 966.128L309.992 966.128ZM365.768 941.744C365.768 937.008 364.392 933.264 361.64 930.512C358.824 927.696 354.536 926.288 348.776 926.288L338.216 926.288C332.456 926.288 328.2 927.696 325.448 930.512C322.632 933.264 321.224 937.008 321.224 941.744L321.224 953.456L365.768 953.456L365.768 941.744ZM378.152 880.452C378.152 884.164 377.544 887.492 376.328 890.436C375.048 893.316 373.288 895.78 371.048 897.828C368.744 899.812 365.992 901.348 362.792 902.436C359.528 903.524 355.88 904.068 351.848 904.068C347.88 904.068 344.296 903.556 341.096 902.532C337.896 901.444 335.176 899.908 332.936 897.924C330.632 895.94 328.872 893.508 327.656 890.628C326.376 887.748 325.736 884.484 325.736 880.836C325.736 876.932 326.408 873.54 327.752 870.66C329.096 867.78 330.92 865.412 333.224 863.556C335.528 861.7 338.216 860.324 341.288 859.428C344.296 858.468 347.528 857.988 350.984 857.988L355.016 857.988L355.016 891.3L356.264 891.3C359.912 891.3 362.856 890.276 365.096 888.228C367.272 886.18 368.36 883.14 368.36 879.108C368.36 876.036 367.72 873.54 366.44 871.62C365.16 869.636 363.528 867.876 361.544 866.34L368.936 859.716C371.816 861.764 374.088 864.58 375.752 868.164C377.352 871.684 378.152 875.78 378.152 880.452ZM334.952 880.644C334.952 883.908 336.04 886.5 338.216 888.42C340.392 890.34 343.208 891.3 346.664 891.3L347.432 891.3L347.432 870.756L346.568 870.756C343.112 870.756 340.328 871.62 338.216 873.348C336.04 875.012 334.952 877.444 334.952 880.644ZM305.96 847.177L305.96 834.889L335.144 834.889L335.144 834.505C332.264 833.609 329.992 831.913 328.328 829.417C326.6 826.921 325.736 824.009 325.736 820.681C325.736 814.281 328.008 809.417 332.552 806.089C337.032 802.697 343.464 801.001 351.848 801.001C360.296 801.001 366.792 802.697 371.336 806.089C375.88 809.417 378.152 814.281 378.152 820.681C378.152 824.009 377.288 826.921 375.56 829.417C373.832 831.849 371.528 833.545 368.648 834.505L368.648 834.889L377 834.889L377 847.177L305.96 847.177ZM367.976 824.617C367.976 821.417 366.92 818.825 364.808 816.841C362.696 814.857 359.848 813.865 356.264 813.865L347.624 813.865C344.04 813.865 341.192 814.857 339.08 816.841C336.904 818.825 335.816 821.417 335.816 824.617C335.816 827.561 336.552 830.025 338.024 832.009C339.496 833.929 341.448 834.889 343.88 834.889L359.816 834.889C362.44 834.889 364.456 833.929 365.864 832.009C367.272 830.025 367.976 827.561 367.976 824.617ZM305.96 789.615L305.96 777.327L335.144 777.327L335.144 776.943C332.264 776.047 329.992 774.351 328.328 771.855C326.6 769.359 325.736 766.447 325.736 763.119C325.736 756.719 328.008 751.855 332.552 748.527C337.032 745.135 343.464 743.439 351.848 743.439C360.296 743.439 366.792 745.135 371.336 748.527C375.88 751.855 378.152 756.719 378.152 763.119C378.152 766.447 377.288 769.359 375.56 771.855C373.832 774.287 371.528 775.983 368.648 776.943L368.648 777.327L377 777.327L377 789.615L305.96 789.615ZM367.976 767.055C367.976 763.855 366.92 761.263 364.808 759.279C362.696 757.295 359.848 756.303 356.264 756.303L347.624 756.303C344.04 756.303 341.192 757.295 339.08 759.279C336.904 761.263 335.816 763.855 335.816 767.055C335.816 769.999 336.552 772.463 338.024 774.447C339.496 776.367 341.448 777.327 343.88 777.327L359.816 777.327C362.44 777.327 364.456 776.367 365.864 774.447C367.272 772.463 367.976 769.999 367.976 767.055ZM319.592 725.908C319.592 728.468 319.016 730.324 317.864 731.476C316.712 732.564 315.24 733.108 313.448 733.108L311.528 733.108C309.736 733.108 308.264 732.564 307.112 731.476C305.96 730.324 305.384 728.468 305.384 725.908C305.384 723.412 305.96 721.588 307.112 720.436C308.264 719.284 309.736 718.708 311.528 718.708L313.448 718.708C315.24 718.708 316.712 719.284 317.864 720.436C319.016 721.588 319.592 723.412 319.592 725.908ZM326.888 732.052L326.888 719.764L377 719.764L377 732.052L326.888 732.052Z" fill="white"/>
<path d="M377 651.473L377 666.257L351.272 681.617L351.272 681.905L377 697.073L377 710.897L342.632 689.201L309.992 709.937L309.992 695.153L333.8 680.945L333.8 680.657L309.992 666.257L309.992 652.433L342.632 673.361L377 651.473Z" fill="#9DA9C6"/>
</g>
<defs>
<linearGradient id="paint0_linear_704_239" x1="198.5" y1="0" x2="198.5" y2="1127.36" gradientUnits="userSpaceOnUse">
<stop stop-color="#112D74"/>
<stop offset="0.376157" stop-color="#10347B"/>
<stop offset="0.517077" stop-color="#10347B"/>
<stop offset="0.643666" stop-color="#0C468A"/>
<stop offset="0.723958" stop-color="#0A5093"/>
<stop offset="0.84375" stop-color="#0666A7"/>
<stop offset="1" stop-color="#0084C2"/>
</linearGradient>
<clipPath id="clip0_704_239">
<rect width="397" height="1024" fill="white"/>
</clipPath>
</defs>
</svg>
