<svg width="132" height="31" viewBox="0 0 132 31" fill="none" xmlns="http://www.w3.org/2000/svg">
<path d="M0.28 2.08L10.44 2.08C12.2533 2.08 13.8933 2.37333 15.36 2.96C16.8533 3.54666 18.12 4.42667 19.16 5.6C20.2267 6.74667 21.04 8.2 21.6 9.96C22.1867 11.6933 22.48 13.72 22.48 16.04C22.48 18.36 22.1867 20.4 21.6 22.16C21.04 23.8933 20.2267 25.3467 19.16 26.52C18.12 27.6667 16.8533 28.5333 15.36 29.12C13.8933 29.7067 12.2533 30 10.44 30H0.28L0.28 2.08ZM10.44 25.32C12.4133 25.32 13.9733 24.7467 15.12 23.6C16.2933 22.4267 16.88 20.64 16.88 18.24V13.84C16.88 11.44 16.2933 9.66667 15.12 8.52C13.9733 7.34667 12.4133 6.76 10.44 6.76L5.56 6.76L5.56 25.32H10.44ZM35.9781 30.48C34.4315 30.48 33.0448 30.2267 31.8181 29.72C30.6181 29.1867 29.5915 28.4533 28.7381 27.52C27.9115 26.56 27.2715 25.4133 26.8181 24.08C26.3648 22.72 26.1381 21.2 26.1381 19.52C26.1381 17.8667 26.3515 16.3733 26.7781 15.04C27.2315 13.7067 27.8715 12.5733 28.6981 11.64C29.5248 10.68 30.5381 9.94667 31.7381 9.44C32.9381 8.90667 34.2981 8.64 35.8181 8.64C37.4448 8.64 38.8581 8.92 40.0581 9.48C41.2581 10.04 42.2448 10.8 43.0181 11.76C43.7915 12.72 44.3648 13.84 44.7381 15.12C45.1381 16.3733 45.3381 17.72 45.3381 19.16V20.84H31.4581V21.36C31.4581 22.88 31.8848 24.1067 32.7381 25.04C33.5915 25.9467 34.8581 26.4 36.5381 26.4C37.8181 26.4 38.8581 26.1333 39.6581 25.6C40.4848 25.0667 41.2181 24.3867 41.8581 23.56L44.6181 26.64C43.7648 27.84 42.5915 28.7867 41.0981 29.48C39.6315 30.1467 37.9248 30.48 35.9781 30.48ZM35.8981 12.48C34.5381 12.48 33.4581 12.9333 32.6581 13.84C31.8581 14.7467 31.4581 15.92 31.4581 17.36V17.68H40.0181V17.32C40.0181 15.88 39.6581 14.72 38.9381 13.84C38.2448 12.9333 37.2315 12.48 35.8981 12.48ZM49.8428 0.4H54.9628L54.9628 12.56H55.1228C55.4961 11.36 56.2028 10.4133 57.2428 9.72C58.2828 9 59.4961 8.64 60.8828 8.64C63.5495 8.64 65.5761 9.58667 66.9628 11.48C68.3761 13.3467 69.0828 16.0267 69.0828 19.52C69.0828 23.04 68.3761 25.7467 66.9628 27.64C65.5761 29.5333 63.5495 30.48 60.8828 30.48C59.4961 30.48 58.2828 30.12 57.2428 29.4C56.2295 28.68 55.5228 27.72 55.1228 26.52H54.9628V30H49.8428L49.8428 0.4ZM59.2428 26.24C60.5761 26.24 61.6561 25.8 62.4828 24.92C63.3095 24.04 63.7228 22.8533 63.7228 21.36V17.76C63.7228 16.2667 63.3095 15.08 62.4828 14.2C61.6561 13.2933 60.5761 12.84 59.2428 12.84C58.0161 12.84 56.9895 13.1467 56.1628 13.76C55.3628 14.3733 54.9628 15.1867 54.9628 16.2V22.84C54.9628 23.9333 55.3628 24.7733 56.1628 25.36C56.9895 25.9467 58.0161 26.24 59.2428 26.24ZM73.8272 0.4H78.9472V12.56H79.1072C79.4805 11.36 80.1872 10.4133 81.2272 9.72C82.2672 9 83.4805 8.64 84.8672 8.64C87.5339 8.64 89.5605 9.58667 90.9472 11.48C92.3605 13.3467 93.0672 16.0267 93.0672 19.52C93.0672 23.04 92.3605 25.7467 90.9472 27.64C89.5605 29.5333 87.5339 30.48 84.8672 30.48C83.4805 30.48 82.2672 30.12 81.2272 29.4C80.2139 28.68 79.5072 27.72 79.1072 26.52H78.9472V30H73.8272V0.4ZM83.2272 26.24C84.5605 26.24 85.6405 25.8 86.4672 24.92C87.2939 24.04 87.7072 22.8533 87.7072 21.36V17.76C87.7072 16.2667 87.2939 15.08 86.4672 14.2C85.6405 13.2933 84.5605 12.84 83.2272 12.84C82.0005 12.84 80.9739 13.1467 80.1472 13.76C79.3472 14.3733 78.9472 15.1867 78.9472 16.2V22.84C78.9472 23.9333 79.3472 24.7733 80.1472 25.36C80.9739 25.9467 82.0005 26.24 83.2272 26.24ZM100.372 6.08C99.3049 6.08 98.5316 5.84 98.0516 5.36C97.5982 4.88 97.3716 4.26667 97.3716 3.52V2.72C97.3716 1.97333 97.5982 1.36 98.0516 0.879998C98.5316 0.399998 99.3049 0.159998 100.372 0.159998C101.412 0.159998 102.172 0.399998 102.652 0.879998C103.132 1.36 103.372 1.97333 103.372 2.72V3.52C103.372 4.26667 103.132 4.88 102.652 5.36C102.172 5.84 101.412 6.08 100.372 6.08ZM97.8116 9.12H102.932V30H97.8116V9.12Z" fill="white"/>
<path d="M131.386 30H125.226L118.826 19.28H118.706L112.386 30L106.626 30L115.666 15.68L107.026 2.08L113.186 2.08L119.106 12H119.226L125.226 2.08H130.986L122.266 15.68L131.386 30Z" fill="#9DA9C6"/>
</svg>
