<svg width="24" height="24" viewBox="0 0 24 24" fill="none" xmlns="http://www.w3.org/2000/svg">
<path d="M10.5 4.1V19.9C10.5 20.5934 10.3501 20.9494 10.1386 21.1483C9.91956 21.3544 9.52146 21.5 8.77 21.5H4.73C3.97854 21.5 3.58044 21.3544 3.36135 21.1483C3.14993 20.9494 3 20.5934 3 19.9V4.1C3 3.40657 3.14993 3.05057 3.36135 2.85167C3.58044 2.64556 3.97854 2.5 4.73 2.5H8.77C9.52146 2.5 9.91956 2.64556 10.1386 2.85167C10.3501 3.05057 10.5 3.40657 10.5 4.1Z" fill="#112D74" stroke="#112D74"/>
<path d="M21 15.36V19.64C21 20.6912 20.1973 21.5 19.27 21.5H15.23C14.3027 21.5 13.5 20.6912 13.5 19.64V15.36C13.5 14.3088 14.3027 13.5 15.23 13.5H19.27C20.1973 13.5 21 14.3088 21 15.36Z" fill="#112D74" stroke="#112D74"/>
<path d="M21 4.36V8.64C21 9.69117 20.1973 10.5 19.27 10.5H15.23C14.3027 10.5 13.5 9.69117 13.5 8.64V4.36C13.5 3.30883 14.3027 2.5 15.23 2.5H19.27C20.1973 2.5 21 3.30883 21 4.36Z" fill="#112D74" stroke="#112D74"/>
</svg>
